<svg width="24" height="24" viewBox="0 0 24 24" fill="none" xmlns="http://www.w3.org/2000/svg">
<g clip-path="url(#clip0_6_427)">
<path fill-rule="evenodd" clip-rule="evenodd" d="M18.8222 5.05219C17.0069 3.25461 14.5547 2.24738 12 2.25H11.8997C6.55413 2.305 2.24972 6.65416 2.25 12C2.25 16.0312 4.74187 19.4119 8.7525 20.8284C9.67041 21.1521 10.6883 21.0103 11.4828 20.4481C12.2773 19.8859 12.7497 18.9733 12.75 18C12.75 17.1716 13.4216 16.5 14.25 16.5H18.5822C19.9843 16.5068 21.2017 15.5359 21.5072 14.1675C21.6748 13.4294 21.7563 12.6744 21.75 11.9175C21.7307 9.32976 20.6763 6.85742 18.8222 5.05219ZM20.0409 13.8375C19.8875 14.5191 19.2809 15.0025 18.5822 15H14.25C12.5931 15 11.25 16.3431 11.25 18C11.2493 18.4862 11.013 18.9418 10.6161 19.2225C10.2192 19.5032 9.71079 19.5742 9.25219 19.4128C5.85844 18.2156 3.75 15.375 3.75 12C3.74976 7.47676 7.39169 3.79677 11.9147 3.75H11.9991C16.5208 3.76756 20.1928 7.40829 20.2491 11.9297C20.2546 12.5714 20.1861 13.2116 20.0447 13.8375H20.0409ZM13.125 7.125C13.125 7.74632 12.6213 8.25 12 8.25C11.3787 8.25 10.875 7.74632 10.875 7.125C10.875 6.50368 11.3787 6 12 6C12.6213 6 13.125 6.50368 13.125 7.125ZM9 9.375C9 9.99632 8.49632 10.5 7.875 10.5C7.25368 10.5 6.75 9.99632 6.75 9.375C6.75 8.75368 7.25368 8.25 7.875 8.25C8.49632 8.25 9 8.75368 9 9.375ZM9 14.625C9 15.2463 8.49632 15.75 7.875 15.75C7.25368 15.75 6.75 15.2463 6.75 14.625C6.75 14.0037 7.25368 13.5 7.875 13.5C8.49632 13.5 9 14.0037 9 14.625ZM17.25 9.375C17.25 9.99632 16.7463 10.5 16.125 10.5C15.5037 10.5 15 9.99632 15 9.375C15 8.75368 15.5037 8.25 16.125 8.25C16.7463 8.25 17.25 8.75368 17.25 9.375Z" fill="#121417"/>
</g>
<defs>
<clipPath id="clip0_6_427">
<rect width="24" height="24" fill="white"/>
</clipPath>
</defs>
</svg>
