<svg width="24" height="24" viewBox="0 0 24 24" fill="none" xmlns="http://www.w3.org/2000/svg">
<g clip-path="url(#clip0_6_492)">
<path fill-rule="evenodd" clip-rule="evenodd" d="M21.5934 13.2244C21.0978 12.8424 20.467 12.6807 19.8487 12.7772C21.6094 10.9997 22.5 9.2325 22.5 7.5C22.5 5.01844 20.5041 3 18.0506 3C16.7329 2.99172 15.4789 3.56656 14.625 4.57031C13.7711 3.56656 12.5171 2.99172 11.1994 3C8.74594 3 6.75 5.01844 6.75 7.5C6.75 8.53125 7.05375 9.53344 7.69312 10.5938C7.16947 10.7264 6.69158 10.9986 6.31031 11.3813L4.18969 13.5H1.5C0.671573 13.5 0 14.1716 0 15V18.75C0 19.5784 0.671573 20.25 1.5 20.25H11.25C11.3113 20.25 11.3724 20.2425 11.4319 20.2275L17.4319 18.7275C17.4701 18.7184 17.5075 18.7058 17.5434 18.69L21.1875 17.1394L21.2288 17.1206C21.9407 16.7649 22.4189 16.0671 22.4939 15.2747C22.5688 14.4823 22.2299 13.7073 21.5972 13.2244H21.5934ZM11.1994 4.5C12.3876 4.48261 13.4679 5.18697 13.9312 6.28125C14.0468 6.56259 14.3209 6.74627 14.625 6.74627C14.9291 6.74627 15.2032 6.56259 15.3188 6.28125C15.7821 5.18697 16.8624 4.48261 18.0506 4.5C19.6491 4.5 21 5.87344 21 7.5C21 9.32906 19.5197 11.3981 16.7194 13.4906L15.6797 13.7297C15.8646 12.9487 15.682 12.126 15.1841 11.4965C14.6861 10.867 13.9276 10.4999 13.125 10.5H9.43875C8.62969 9.40875 8.25 8.44875 8.25 7.5C8.25 5.87344 9.60094 4.5 11.1994 4.5ZM1.5 15H3.75V18.75H1.5V15ZM20.5716 15.7697L17.0091 17.2866L11.1562 18.75H5.25V14.5603L7.37156 12.4397C7.6519 12.1571 8.03383 11.9987 8.43188 12H13.125C13.7463 12 14.25 12.5037 14.25 13.125C14.25 13.7463 13.7463 14.25 13.125 14.25H10.5C10.0858 14.25 9.75 14.5858 9.75 15C9.75 15.4142 10.0858 15.75 10.5 15.75H13.5C13.5565 15.7498 13.6127 15.7436 13.6678 15.7312L19.9491 14.2866L19.9781 14.2791C20.3752 14.1688 20.7915 14.3758 20.9433 14.7589C21.0952 15.1421 20.9336 15.578 20.5688 15.7697H20.5716Z" fill="#121417"/>
</g>
<defs>
<clipPath id="clip0_6_492">
<rect width="24" height="24" fill="white"/>
</clipPath>
</defs>
</svg>
