<svg width="24" height="24" viewBox="0 0 24 24" fill="none" xmlns="http://www.w3.org/2000/svg">
<g clip-path="url(#clip0_6_528)">
<path fill-rule="evenodd" clip-rule="evenodd" d="M12 2.25C6.61522 2.25 2.25 6.61522 2.25 12C2.25 17.3848 6.61522 21.75 12 21.75C17.3848 21.75 21.75 17.3848 21.75 12C21.7443 6.61758 17.3824 2.25568 12 2.25ZM12 20.25C7.44365 20.25 3.75 16.5563 3.75 12C3.75 7.44365 7.44365 3.75 12 3.75C16.5563 3.75 20.25 7.44365 20.25 12C20.2448 16.5542 16.5542 20.2448 12 20.25ZM7.5 10.125C7.5 9.50368 8.00368 9 8.625 9C9.24632 9 9.75 9.50368 9.75 10.125C9.75 10.7463 9.24632 11.25 8.625 11.25C8.00368 11.25 7.5 10.7463 7.5 10.125ZM17.25 10.125C17.25 10.5392 16.9142 10.875 16.5 10.875H14.25C13.8358 10.875 13.5 10.5392 13.5 10.125C13.5 9.71079 13.8358 9.375 14.25 9.375H16.5C16.9142 9.375 17.25 9.71079 17.25 10.125ZM16.3988 14.625C15.4341 16.2928 13.8309 17.25 12 17.25C10.1691 17.25 8.56594 16.2938 7.60031 14.625C7.39321 14.2662 7.51619 13.8074 7.875 13.6003C8.23381 13.3932 8.69258 13.5162 8.89969 13.875C9.59906 15.0853 10.6997 15.75 12 15.75C13.3003 15.75 14.4009 15.0844 15.1012 13.875C15.2289 13.6309 15.4802 13.4764 15.7557 13.4727C16.0311 13.469 16.2865 13.6166 16.4207 13.8571C16.555 14.0977 16.5465 14.3925 16.3988 14.625Z" fill="#121417"/>
</g>
<defs>
<clipPath id="clip0_6_528">
<rect width="24" height="24" fill="white"/>
</clipPath>
</defs>
</svg>
