<svg width="24" height="24" viewBox="0 0 24 24" fill="none" xmlns="http://www.w3.org/2000/svg">
<g clip-path="url(#clip0_6_549)">
<path fill-rule="evenodd" clip-rule="evenodd" d="M21.7322 3.01781C21.2388 2.52433 20.5691 2.24763 19.8713 2.24887C19.1734 2.2501 18.5048 2.52915 18.0131 3.02437L1.71281 19.7437C1.52265 19.9377 1.4522 20.2193 1.52864 20.4799C1.60508 20.7406 1.81646 20.9395 2.08125 21C3.15719 21.2493 4.25805 21.3752 5.3625 21.375C8.49563 21.375 11.6325 20.355 14.5809 18.3553C17.5575 16.3369 19.2825 14.0569 19.3547 13.9603C19.5789 13.6617 19.5493 13.2437 19.2853 12.9797L17.5284 11.2209L21.7472 6.72094C22.758 5.69108 22.7513 4.03945 21.7322 3.01781ZM17.7394 13.5591C16.5507 14.92 15.1924 16.1229 13.6978 17.1384C10.4662 19.3181 7.13531 20.2041 3.77531 19.7784L13.7409 9.55969L17.7394 13.5591ZM20.6719 5.67188L20.655 5.68969L16.4634 10.1587L14.7881 8.48156L19.08 4.07531C19.5201 3.63521 20.2336 3.63521 20.6737 4.07531C21.1139 4.51541 21.1139 5.22896 20.6737 5.66906L20.6719 5.67188Z" fill="#121417"/>
</g>
<defs>
<clipPath id="clip0_6_549">
<rect width="24" height="24" fill="white"/>
</clipPath>
</defs>
</svg>
