<svg width="24" height="24" viewBox="0 0 24 24" fill="none" xmlns="http://www.w3.org/2000/svg">
<g clip-path="url(#clip0_6_448)">
<path fill-rule="evenodd" clip-rule="evenodd" d="M19.5 10.5C18.9578 10.4998 18.42 10.5979 17.9128 10.7897L15.5559 6.75H18C18.4142 6.75 18.75 7.08579 18.75 7.5C18.75 7.91421 19.0858 8.25 19.5 8.25C19.9142 8.25 20.25 7.91421 20.25 7.5C20.25 6.25736 19.2426 5.25 18 5.25H14.25C13.9824 5.25061 13.7353 5.3938 13.6018 5.62574C13.4682 5.85768 13.4684 6.14321 13.6022 6.375L14.6944 8.25H9.30562L7.77281 5.625C7.63914 5.39348 7.39234 5.25061 7.125 5.25H4.5C4.08579 5.25 3.75 5.58579 3.75 6C3.75 6.41421 4.08579 6.75 4.5 6.75H6.69469L7.98 8.95406L6.50719 10.9744C4.40913 9.92443 1.85651 10.6575 0.63523 12.6607C-0.586048 14.6638 -0.0684541 17.2687 1.82588 18.6528C3.72022 20.0369 6.35918 19.7384 7.89645 17.9661C9.43373 16.1938 9.35634 13.5391 7.71844 11.8594L8.805 10.3687L11.7272 15.375C11.8516 15.6249 12.1046 15.7851 12.3837 15.7906C12.6629 15.7961 12.922 15.6461 13.0562 15.4013C13.1904 15.1565 13.1776 14.8574 13.0228 14.625L10.1803 9.75H15.5691L16.6181 11.5472C14.9416 12.9484 14.5139 15.3515 15.6041 17.2452C16.6942 19.1388 18.9872 19.9757 21.0408 19.2294C23.0945 18.4832 24.3153 16.3696 23.9355 14.2178C23.5557 12.066 21.685 10.4981 19.5 10.5ZM7.5 15C7.50037 16.3172 6.64144 17.4806 5.38248 17.8681C4.12352 18.2556 2.75907 17.7765 2.01871 16.687C1.27834 15.5975 1.33527 14.1525 2.15905 13.1247C2.98283 12.0968 4.38074 11.7266 5.60531 12.2119L3.89438 14.5556C3.72475 14.7714 3.68651 15.0625 3.79467 15.3148C3.90283 15.567 4.14012 15.74 4.41335 15.7659C4.68657 15.7917 4.95209 15.6662 5.10563 15.4388L6.81656 13.095C7.25899 13.6312 7.50066 14.3048 7.5 15ZM19.5 18C18.2848 17.9991 17.1902 17.2651 16.7279 16.1413C16.2656 15.0175 16.5269 13.7258 17.3897 12.87L18.8522 15.375C18.9766 15.6249 19.2296 15.7851 19.5087 15.7906C19.7879 15.7961 20.047 15.6461 20.1812 15.4013C20.3154 15.1565 20.3026 14.8574 20.1478 14.625L18.6844 12.1134C19.8113 11.7944 21.0208 12.1604 21.7818 13.0505C22.5429 13.9407 22.7163 15.1924 22.226 16.256C21.7356 17.3196 20.6712 18.0006 19.5 18Z" fill="#121417"/>
</g>
<defs>
<clipPath id="clip0_6_448">
<rect width="24" height="24" fill="white"/>
</clipPath>
</defs>
</svg>
