<svg width="24" height="24" viewBox="0 0 24 24" fill="none" xmlns="http://www.w3.org/2000/svg">
<g clip-path="url(#clip0_6_456)">
<path fill-rule="evenodd" clip-rule="evenodd" d="M12 2.25C6.61522 2.25 2.25 6.61522 2.25 12C2.25 17.3848 6.61522 21.75 12 21.75C17.3848 21.75 21.75 17.3848 21.75 12C21.7443 6.61758 17.3824 2.25568 12 2.25ZM19.1737 16.0706H16.0219L15.1538 14.8744L16.3378 11.4263L17.7441 10.9678L20.2041 12.855C20.0877 13.9868 19.7368 15.0819 19.1737 16.0706ZM3.79875 12.855L6.25406 10.9688L7.66031 11.4272L8.84437 14.8753L7.97813 16.0706H4.82625C4.26258 15.0821 3.91104 13.9869 3.79406 12.855H3.79875ZM4.73625 8.1075L5.25281 9.85125L3.81656 10.9472C3.9439 9.95282 4.25277 8.99029 4.72781 8.1075H4.73625ZM10.2188 14.25L9.14437 11.1234L12 9.16031L14.8556 11.1234L13.7812 14.25H10.2188ZM18.7566 9.85125L19.2731 8.1075C19.7482 8.99029 20.057 9.95282 20.1844 10.9472L18.7566 9.85125ZM18.1753 6.53438L17.2838 9.54187L15.8709 10.0003L12.75 7.85531V6.39469L15.4772 4.51969C16.5044 5.00006 17.4223 5.68571 18.1744 6.53438H18.1753ZM13.6941 3.92531L12 5.08969L10.3059 3.92531C11.4232 3.69156 12.5768 3.69156 13.6941 3.92531ZM8.52281 4.51969L11.25 6.39469V7.85531L8.13 10.0003L6.71719 9.54187L5.82562 6.53438C6.57771 5.68571 7.49563 5.00006 8.52281 4.51969ZM5.92031 17.5706H7.83L8.50219 19.4709C7.52608 19.0116 6.64905 18.3661 5.92031 17.5706ZM10.3125 20.0747L9.19875 16.9416L10.0641 15.75H13.9359L14.8013 16.9416L13.6922 20.0747C12.5762 20.3086 11.4238 20.3086 10.3078 20.0747H10.3125ZM15.5025 19.4709L16.1747 17.5706H18.0844C17.3543 18.3666 16.4756 19.0121 15.4978 19.4709H15.5025Z" fill="#121417"/>
</g>
<defs>
<clipPath id="clip0_6_456">
<rect width="24" height="24" fill="white"/>
</clipPath>
</defs>
</svg>
