<svg width="24" height="24" viewBox="0 0 24 24" fill="none" xmlns="http://www.w3.org/2000/svg">
<g clip-path="url(#clip0_6_434)">
<path fill-rule="evenodd" clip-rule="evenodd" d="M16.5 10.5H14.25C13.8358 10.5 13.5 10.1642 13.5 9.75C13.5 9.33579 13.8358 9 14.25 9H16.5C16.9142 9 17.25 9.33579 17.25 9.75C17.25 10.1642 16.9142 10.5 16.5 10.5ZM9.75 9H9V8.25C9 7.83579 8.66421 7.5 8.25 7.5C7.83579 7.5 7.5 7.83579 7.5 8.25V9H6.75C6.33579 9 6 9.33579 6 9.75C6 10.1642 6.33579 10.5 6.75 10.5H7.5V11.25C7.5 11.6642 7.83579 12 8.25 12C8.66421 12 9 11.6642 9 11.25V10.5H9.75C10.1642 10.5 10.5 10.1642 10.5 9.75C10.5 9.33579 10.1642 9 9.75 9ZM22.6388 18.8109C22.0666 19.628 21.1623 20.1501 20.1686 20.2371C19.1749 20.3241 18.1936 19.9671 17.4881 19.2619C17.4769 19.2506 17.4656 19.2394 17.4553 19.2272L13.7325 15H10.2638L6.54469 19.2272L6.51188 19.2619C5.87832 19.8941 5.02002 20.2494 4.125 20.25C3.12761 20.2496 2.18147 19.8081 1.54049 19.044C0.899508 18.2798 0.629343 17.2713 0.8025 16.2891C0.802048 16.2847 0.802048 16.2803 0.8025 16.2759L2.33719 8.3925C2.80866 5.70851 5.1396 3.75077 7.86469 3.75H16.125C18.8408 3.75433 21.1667 5.69592 21.6562 8.36719C21.6562 8.37281 21.6562 8.37844 21.6562 8.38406L23.1909 16.275C23.1914 16.2794 23.1914 16.2838 23.1909 16.2881C23.3514 17.1691 23.1525 18.0776 22.6388 18.8109ZM16.125 13.5C18.4032 13.5 20.25 11.6532 20.25 9.375C20.25 7.09683 18.4032 5.25 16.125 5.25H7.86469C5.86545 5.25179 4.15667 6.69008 3.81375 8.65969V8.67188L2.27813 16.5553C2.13886 17.3572 2.5328 18.1573 3.25323 18.5359C3.97367 18.9145 4.85609 18.7851 5.4375 18.2156L9.3675 13.7541C9.50985 13.5926 9.71473 13.5 9.93 13.5H16.125ZM21.7219 16.5553L20.9025 12.3366C19.8779 13.991 18.071 14.9984 16.125 15H15.7312L18.5625 18.2166C18.9955 18.6378 19.6043 18.8257 20.1994 18.7219C21.2169 18.5423 21.8973 17.5734 21.7209 16.5553H21.7219Z" fill="#121417"/>
</g>
<defs>
<clipPath id="clip0_6_434">
<rect width="24" height="24" fill="white"/>
</clipPath>
</defs>
</svg>
