<svg width="24" height="24" viewBox="0 0 24 24" fill="none" xmlns="http://www.w3.org/2000/svg">
<g clip-path="url(#clip0_6_585)">
<path fill-rule="evenodd" clip-rule="evenodd" d="M15.75 3.80437V3C15.75 1.75736 14.7426 0.75 13.5 0.75H10.5C9.25736 0.75 8.25 1.75736 8.25 3V3.80437C5.66905 4.18056 3.75388 6.39178 3.75 9V20.25C3.75 21.0784 4.42157 21.75 5.25 21.75H18.75C19.5784 21.75 20.25 21.0784 20.25 20.25V9C20.2461 6.39178 18.331 4.18056 15.75 3.80437ZM10.5 2.25H13.5C13.9142 2.25 14.25 2.58579 14.25 3V3.75H9.75V3C9.75 2.58579 10.0858 2.25 10.5 2.25ZM15.75 15H8.25V14.25C8.25 13.8358 8.58579 13.5 9 13.5H15C15.4142 13.5 15.75 13.8358 15.75 14.25V15ZM8.25 16.5H12.75V17.25C12.75 17.6642 13.0858 18 13.5 18C13.9142 18 14.25 17.6642 14.25 17.25V16.5H15.75V20.25H8.25V16.5ZM18.75 20.25H17.25V14.25C17.25 13.0074 16.2426 12 15 12H9C7.75736 12 6.75 13.0074 6.75 14.25V20.25H5.25V9C5.25 6.92893 6.92893 5.25 9 5.25H15C17.0711 5.25 18.75 6.92893 18.75 9V20.25ZM14.25 8.25C14.25 8.66421 13.9142 9 13.5 9H10.5C10.0858 9 9.75 8.66421 9.75 8.25C9.75 7.83579 10.0858 7.5 10.5 7.5H13.5C13.9142 7.5 14.25 7.83579 14.25 8.25Z" fill="#121417"/>
</g>
<defs>
<clipPath id="clip0_6_585">
<rect width="24" height="24" fill="white"/>
</clipPath>
</defs>
</svg>
