<svg width="24" height="24" viewBox="0 0 24 24" fill="none" xmlns="http://www.w3.org/2000/svg">
<g clip-path="url(#clip0_6_441)">
<path fill-rule="evenodd" clip-rule="evenodd" d="M20.25 3.75H3.75C2.92157 3.75 2.25 4.42157 2.25 5.25V18.75C2.25 19.5784 2.92157 20.25 3.75 20.25H20.25C21.0784 20.25 21.75 19.5784 21.75 18.75V5.25C21.75 4.42157 21.0784 3.75 20.25 3.75ZM3.75 8.25H11.25V15.75H3.75V8.25ZM12.75 6.75V5.25H15.75V6.75H12.75ZM11.25 6.75H8.25V5.25H11.25V6.75ZM11.25 17.25V18.75H8.25V17.25H11.25ZM12.75 17.25H15.75V18.75H12.75V17.25ZM12.75 15.75V8.25H20.25V15.75H12.75ZM20.25 6.75H17.25V5.25H20.25V6.75ZM6.75 5.25V6.75H3.75V5.25H6.75ZM3.75 17.25H6.75V18.75H3.75V17.25ZM20.25 18.75H17.25V17.25H20.25V18.75Z" fill="#121417"/>
</g>
<defs>
<clipPath id="clip0_6_441">
<rect width="24" height="24" fill="white"/>
</clipPath>
</defs>
</svg>
