<svg width="24" height="24" viewBox="0 0 24 24" fill="none" xmlns="http://www.w3.org/2000/svg">
<g clip-path="url(#clip0_6_513)">
<path fill-rule="evenodd" clip-rule="evenodd" d="M20.6503 14.8631C20.433 14.726 20.1606 14.7098 19.9284 14.82C19.1406 15.1926 18.1999 14.9732 17.6581 14.2906C17.1164 13.608 17.1164 12.642 17.6581 11.9594C18.1999 11.2768 19.1406 11.0574 19.9284 11.43C20.1608 11.5403 20.4335 11.5238 20.6509 11.3863C20.8683 11.2488 21.0001 11.0094 21 10.7522V6.75C21 5.92157 20.3284 5.25 19.5 5.25H16.1044C16.1183 5.12549 16.1252 5.00029 16.125 4.875C16.1236 3.94339 15.7384 3.05353 15.06 2.415C14.1115 1.52414 12.7353 1.25796 11.5229 1.73087C10.3106 2.20378 9.47818 3.33154 9.38344 4.62937C9.36903 4.83622 9.37342 5.04395 9.39656 5.25H6C5.17157 5.25 4.5 5.92157 4.5 6.75V9.77063C4.37549 9.75667 4.25029 9.74978 4.125 9.75C3.19341 9.7515 2.3036 10.1367 1.665 10.815C1.02161 11.4946 0.692156 12.4126 0.756562 13.3462C0.867681 15.0275 2.19918 16.3706 3.87937 16.4963C4.08621 16.5111 4.29398 16.5067 4.5 16.4831V19.5C4.5 20.3284 5.17157 21 6 21H19.5C20.3284 21 21 20.3284 21 19.5V15.4978C21.0002 15.2402 20.8681 15.0006 20.6503 14.8631ZM19.5 19.5H6V15.4978C6.00008 15.2406 5.86833 15.0012 5.65093 14.8637C5.43354 14.7262 5.16083 14.7097 4.92844 14.82C4.1406 15.1926 3.19991 14.9732 2.65814 14.2906C2.11637 13.608 2.11637 12.642 2.65814 11.9594C3.19991 11.2768 4.1406 11.0574 4.92844 11.43C5.16083 11.5403 5.43354 11.5238 5.65093 11.3863C5.86833 11.2488 6.00008 11.0094 6 10.7522V6.75H10.3772C10.6344 6.75008 10.8738 6.61833 11.0113 6.40093C11.1488 6.18354 11.1653 5.91083 11.055 5.67844C10.6824 4.8906 10.9018 3.94991 11.5844 3.40814C12.267 2.86637 13.233 2.86637 13.9156 3.40814C14.5982 3.94991 14.8176 4.8906 14.445 5.67844C14.3347 5.91083 14.3512 6.18354 14.4887 6.40093C14.6262 6.61833 14.8656 6.75008 15.1228 6.75H19.5V9.77156C19.294 9.74796 19.0862 9.74357 18.8794 9.75844C17.065 9.88692 15.6788 11.4302 15.745 13.2479C15.8112 15.0656 17.3061 16.5039 19.125 16.5C19.2503 16.5002 19.3755 16.4933 19.5 16.4794V19.5Z" fill="#121417"/>
</g>
<defs>
<clipPath id="clip0_6_513">
<rect width="24" height="24" fill="white"/>
</clipPath>
</defs>
</svg>
