<svg width="24" height="24" viewBox="0 0 24 24" fill="none" xmlns="http://www.w3.org/2000/svg">
<g clip-path="url(#clip0_6_484)">
<path fill-rule="evenodd" clip-rule="evenodd" d="M20.7834 18.7284L15 9.08625V3.75H15.75C16.1642 3.75 16.5 3.41421 16.5 3C16.5 2.58579 16.1642 2.25 15.75 2.25H8.25C7.83579 2.25 7.5 2.58579 7.5 3C7.5 3.41421 7.83579 3.75 8.25 3.75H9V9.08625L3.21656 18.7284C2.93888 19.1914 2.93138 19.7679 3.19694 20.2379C3.4625 20.7079 3.96015 20.999 4.5 21H19.5C20.0404 21 20.5389 20.7093 20.8052 20.2391C21.0714 19.7689 21.0642 19.1918 20.7862 18.7284H20.7834ZM10.3931 9.67969C10.4633 9.56342 10.5002 9.43016 10.5 9.29438V3.75H13.5V9.29438C13.4998 9.43016 13.5367 9.56342 13.6069 9.67969L17.19 15.6562C16.065 15.8784 14.4647 15.7847 12.3384 14.7084C10.8469 13.9538 9.4275 13.5534 8.09906 13.5075L10.3931 9.67969ZM4.5 19.5L7.17562 15.0394C8.51156 14.8763 10.0172 15.2128 11.6587 16.0444C13.44 16.9453 14.94 17.2519 16.1588 17.2519C16.7786 17.2546 17.3957 17.1694 17.9916 16.9988L19.5 19.5H4.5Z" fill="#121417"/>
</g>
<defs>
<clipPath id="clip0_6_484">
<rect width="24" height="24" fill="white"/>
</clipPath>
</defs>
</svg>
