<?xml version="1.0" encoding="UTF-8"?>
<svg xmlns="http://www.w3.org/2000/svg" xmlns:xlink="http://www.w3.org/1999/xlink" width="40px" height="40px" viewBox="0 0 40 40" version="1.1">
<g id="surface1">
<path style=" stroke:none;fill-rule:nonzero;fill:rgb(98.039216%,73.725492%,23.921569%);fill-opacity:1;" d="M 40 20 C 40 8.953125 31.046875 0 20 0 C 8.953125 0 0 8.953125 0 20 C 0 31.046875 8.953125 40 20 40 C 31.046875 40 40 31.046875 40 20 Z M 40 20 "/>
<path style=" stroke:none;fill-rule:nonzero;fill:rgb(88.627452%,89.411765%,89.803922%);fill-opacity:1;" d="M 24.363281 24.726562 L 23.636719 24.363281 L 16.363281 24.363281 L 15.636719 24.726562 L 20 31.636719 Z M 24.363281 24.726562 "/>
<path style=" stroke:none;fill-rule:nonzero;fill:rgb(97.254902%,88.235295%,76.078433%);fill-opacity:1;" d="M 25.453125 16.363281 C 25.089844 16.363281 25.089844 16.769531 25.089844 16.769531 L 25.089844 16.363281 C 25.089844 15.992188 25.082031 15.621094 25.066406 15.25 C 23.597656 13.820312 20 13.816406 20 13.816406 C 20 13.816406 16.402344 13.820312 14.933594 15.25 C 14.917969 15.621094 14.910156 15.992188 14.910156 16.363281 L 14.910156 19.273438 L 16.363281 22.90625 L 18.21875 24.359375 C 18.425781 24.59375 18.722656 24.726562 19.035156 24.726562 L 20.964844 24.726562 C 21.277344 24.726562 21.574219 24.59375 21.78125 24.359375 L 23.636719 22.90625 L 24.800781 19.992188 C 25.832031 19.917969 26.183594 18.355469 26.183594 17.171875 C 26.183594 16.769531 25.816406 16.363281 25.453125 16.363281 Z M 25.453125 16.363281 "/>
<path style=" stroke:none;fill-rule:nonzero;fill:rgb(98.823529%,94.509804%,88.627452%);fill-opacity:1;" d="M 14.910156 16.363281 L 14.910156 16.769531 C 14.910156 16.769531 14.910156 16.363281 14.546875 16.363281 C 14.183594 16.363281 13.816406 16.769531 13.816406 17.171875 C 13.816406 18.355469 14.167969 19.917969 15.199219 19.992188 L 16.363281 22.90625 L 18.21875 24.359375 C 18.425781 24.59375 18.722656 24.726562 19.035156 24.726562 L 20 24.726562 L 20 13.816406 C 20 13.816406 16.402344 13.820312 14.933594 15.25 C 14.917969 15.621094 14.910156 15.992188 14.910156 16.363281 Z M 14.910156 16.363281 "/>
<path style=" stroke:none;fill-rule:nonzero;fill:rgb(96.862745%,57.647061%,57.254905%);fill-opacity:1;" d="M 18.183594 20.726562 L 21.816406 20.726562 C 21.816406 20.726562 21.816406 21.816406 20 21.816406 C 18.183594 21.816406 18.183594 20.726562 18.183594 20.726562 Z M 18.183594 20.726562 "/>
<path style=" stroke:none;fill-rule:nonzero;fill:rgb(24.313726%,24.313726%,24.705882%);fill-opacity:1;" d="M 22.183594 17.207031 C 22.613281 17.207031 23 17.304688 23.265625 17.453125 C 23.292969 17.246094 23.203125 17.035156 22.992188 16.875 C 22.621094 16.59375 22.011719 16.59375 21.636719 16.875 C 21.46875 17.003906 21.378906 17.167969 21.363281 17.335938 C 21.628906 17.25 21.902344 17.207031 22.183594 17.207031 Z M 17.816406 17.207031 C 17.382812 17.207031 17 17.304688 16.730469 17.453125 C 16.707031 17.246094 16.792969 17.035156 17.003906 16.875 C 17.378906 16.59375 17.984375 16.59375 18.359375 16.875 C 18.53125 17.003906 18.617188 17.167969 18.636719 17.335938 C 18.371094 17.25 18.09375 17.207031 17.816406 17.207031 Z M 17.816406 17.207031 "/>
<path style=" stroke:none;fill-rule:nonzero;fill:rgb(95.686275%,81.568629%,63.137257%);fill-opacity:1;" d="M 20.964844 24.726562 L 19.035156 24.726562 C 18.722656 24.726562 18.425781 24.59375 18.21875 24.359375 L 16.363281 22.90625 L 16.363281 24.542969 C 16.363281 24.542969 16.363281 27.273438 20 27.273438 C 23.636719 27.273438 23.636719 24.542969 23.636719 24.542969 L 23.636719 22.90625 L 21.78125 24.359375 C 21.574219 24.59375 21.277344 24.726562 20.964844 24.726562 Z M 20.964844 24.726562 "/>
<path style=" stroke:none;fill-rule:nonzero;fill:rgb(24.313726%,24.313726%,24.705882%);fill-opacity:1;" d="M 20 13.816406 C 20 13.816406 19.722656 13.816406 19.296875 13.847656 L 19.296875 15.894531 C 20.648438 15.894531 21.46875 14.917969 21.941406 13.992188 C 20.875 13.820312 20 13.816406 20 13.816406 Z M 16.699219 14.300781 C 16.007812 14.515625 15.355469 14.828125 14.910156 15.273438 C 14.910156 16.5625 15.753906 17.183594 15.753906 17.183594 C 15.648438 16.105469 15.640625 15.40625 16.699219 14.300781 Z M 17.042969 14.203125 L 17.042969 15.894531 C 18.082031 15.894531 18.914062 14.421875 19.195312 13.855469 C 18.625 13.898438 17.828125 13.996094 17.042969 14.203125 Z M 24.125 14.621094 L 24.125 17.183594 C 25.03125 17.183594 25.085938 15.488281 25.089844 15.273438 C 24.828125 15.011719 24.496094 14.796875 24.125 14.621094 Z M 22.515625 14.097656 L 22.515625 15.894531 C 23.734375 15.894531 24.089844 14.742188 24.121094 14.617188 C 23.625 14.382812 23.0625 14.214844 22.515625 14.097656 Z M 22.515625 14.097656 "/>
<path style=" stroke:none;fill-rule:nonzero;fill:rgb(97.254902%,88.235295%,76.078433%);fill-opacity:1;" d="M 18.21875 24.359375 L 16.363281 22.90625 L 16.363281 24.542969 C 16.363281 24.542969 16.363281 27.273438 20 27.273438 L 20 24.726562 L 19.035156 24.726562 C 18.722656 24.726562 18.425781 24.59375 18.21875 24.359375 Z M 18.21875 24.359375 "/>
<path style=" stroke:none;fill-rule:nonzero;fill:rgb(98.039216%,33.725491%,33.333334%);fill-opacity:1;" d="M 12.542969 19.433594 L 12.542969 12.300781 C 12.300781 12.214844 12.058594 12.125 11.816406 12.035156 L 11.816406 19.433594 C 10.867188 20.058594 11.453125 21.925781 11.453125 22.910156 L 12.90625 22.910156 C 12.90625 21.925781 13.492188 20.058594 12.542969 19.433594 Z M 12.542969 19.433594 "/>
<path style=" stroke:none;fill-rule:nonzero;fill:rgb(24.313726%,24.313726%,24.705882%);fill-opacity:1;" d="M 29.816406 11.273438 C 29.816406 10.910156 20.726562 8.363281 20 8.363281 C 19.273438 8.363281 10.183594 10.910156 10.183594 11.273438 C 10.183594 11.5 12.882812 12.4375 14.910156 13.109375 L 14.910156 15.273438 C 16.363281 13.816406 20 13.816406 20 13.816406 C 20 13.816406 23.636719 13.816406 25.089844 15.273438 L 25.089844 13.109375 C 27.117188 12.4375 29.816406 11.5 29.816406 11.273438 Z M 29.816406 11.273438 "/>
<path style=" stroke:none;fill-rule:nonzero;fill:rgb(100%,100%,100%);fill-opacity:1;" d="M 24.351562 24.75 L 24.363281 24.726562 L 23.636719 24.363281 L 20.003906 26.175781 L 22.113281 28.292969 Z M 24.351562 24.75 "/>
<path style=" stroke:none;fill-rule:nonzero;fill:rgb(87.450981%,17.254902%,17.254902%);fill-opacity:1;" d="M 21.453125 31.636719 L 20.4375 27.925781 L 21.089844 27.273438 L 19.992188 26.171875 L 18.902344 27.265625 L 19.5625 27.925781 L 18.546875 31.636719 Z M 21.453125 31.636719 "/>
<path style=" stroke:none;fill-rule:nonzero;fill:rgb(98.039216%,33.725491%,33.333334%);fill-opacity:1;" d="M 20 31.636719 L 20 26.179688 L 19.992188 26.171875 L 18.902344 27.265625 L 19.5625 27.925781 L 18.546875 31.636719 Z M 20 31.636719 "/>
<path style=" stroke:none;fill-rule:nonzero;fill:rgb(100%,100%,100%);fill-opacity:1;" d="M 15.648438 24.75 L 15.636719 24.726562 L 16.363281 24.363281 L 19.996094 26.175781 L 17.886719 28.292969 Z M 15.648438 24.75 "/>
<path style=" stroke:none;fill-rule:nonzero;fill:rgb(24.313726%,24.313726%,24.705882%);fill-opacity:1;" d="M 8.363281 31.636719 L 9.816406 27.636719 C 10.042969 27.152344 10.4375 26.765625 10.925781 26.550781 L 15.636719 24.726562 L 20 31.636719 Z M 31.636719 31.636719 L 30.183594 27.636719 C 29.957031 27.152344 29.5625 26.765625 29.074219 26.550781 L 24.363281 24.726562 L 20 31.636719 Z M 31.636719 31.636719 "/>
<path style=" stroke:none;fill-rule:nonzero;fill:rgb(61.960787%,62.352943%,62.7451%);fill-opacity:1;" d="M 20 31.636719 L 15.636719 24.726562 L 12.363281 25.816406 L 18.546875 31.636719 Z M 20 31.636719 L 24.363281 24.726562 L 27.636719 25.816406 L 21.453125 31.636719 Z M 20 31.636719 "/>
</g>
</svg>
