<svg width="24" height="24" viewBox="0 0 24 24" fill="none" xmlns="http://www.w3.org/2000/svg">
<g clip-path="url(#clip0_6_571)">
<path fill-rule="evenodd" clip-rule="evenodd" d="M3.21844 7.2825C3.07703 7.14175 2.99753 6.95045 2.99753 6.75094C2.99753 6.55142 3.07703 6.36013 3.21844 6.21938C3.29062 6.14906 4.97813 4.5 8.25 4.5C9.97688 4.5 11.2725 5.36344 12.4163 6.12563C13.4756 6.8325 14.4769 7.5 15.75 7.5C16.7779 7.51534 17.7959 7.29637 18.7266 6.85969C19.0875 6.69316 19.423 6.47632 19.7231 6.21562C20.0172 5.92386 20.4921 5.92575 20.7839 6.21984C21.0757 6.51394 21.0738 6.98886 20.7797 7.28062C20.7094 7.35094 19.0219 9 15.75 9C14.0231 9 12.7275 8.13656 11.5837 7.37437C10.5244 6.6675 9.52312 6 8.25 6C7.22206 5.98466 6.20413 6.20363 5.27344 6.64031C4.91249 6.80684 4.57696 7.02368 4.27688 7.28438C3.98372 7.57527 3.51056 7.57443 3.21844 7.2825ZM19.7231 11.4656C19.423 11.7263 19.0875 11.9432 18.7266 12.1097C17.7959 12.5464 16.7779 12.7653 15.75 12.75C14.4769 12.75 13.4756 12.0825 12.4163 11.3756C11.2725 10.6134 9.97688 9.75 8.25 9.75C4.97813 9.75 3.29063 11.3991 3.22031 11.4694C2.92622 11.7611 2.92433 12.2361 3.21609 12.5302C3.50786 12.8242 3.98278 12.8261 4.27688 12.5344C4.57696 12.2737 4.91249 12.0568 5.27344 11.8903C6.20413 11.4536 7.22206 11.2347 8.25 11.25C9.52312 11.25 10.5244 11.9175 11.5837 12.6244C12.7275 13.3866 14.0212 14.25 15.75 14.25C19.0219 14.25 20.7094 12.6009 20.7797 12.5306C21.0738 12.2389 21.0757 11.7639 20.7839 11.4698C20.4921 11.1758 20.0172 11.1739 19.7231 11.4656ZM19.7231 16.7156C19.423 16.9763 19.0875 17.1932 18.7266 17.3597C17.7959 17.7964 16.7779 18.0153 15.75 18C14.4769 18 13.4756 17.3325 12.4163 16.6256C11.2725 15.8634 9.97688 15 8.25 15C4.97813 15 3.29063 16.6491 3.22031 16.7194C2.92622 17.0111 2.92433 17.4861 3.21609 17.7802C3.50786 18.0742 3.98278 18.0761 4.27688 17.7844C4.57696 17.5237 4.91249 17.3068 5.27344 17.1403C6.20413 16.7036 7.22206 16.4847 8.25 16.5C9.52312 16.5 10.5244 17.1675 11.5837 17.8744C12.7275 18.6366 14.0212 19.5 15.75 19.5C19.0219 19.5 20.7094 17.8509 20.7797 17.7806C21.0738 17.4889 21.0757 17.0139 20.7839 16.7198C20.4921 16.4258 20.0172 16.4239 19.7231 16.7156Z" fill="#121417"/>
</g>
<defs>
<clipPath id="clip0_6_571">
<rect width="24" height="24" fill="white"/>
</clipPath>
</defs>
</svg>
