<svg width="24" height="24" viewBox="0 0 24 24" fill="none" xmlns="http://www.w3.org/2000/svg">
<g clip-path="url(#clip0_6_535)">
<path fill-rule="evenodd" clip-rule="evenodd" d="M18.9272 5.87437C17.1152 4.04415 14.6495 3.00999 12.0741 3H12C6.61522 3 2.25 7.36522 2.25 12.75V18C2.25 19.2426 3.25736 20.25 4.5 20.25H6C7.24264 20.25 8.25 19.2426 8.25 18V14.25C8.25 13.0074 7.24264 12 6 12H3.78375C4.17156 7.75177 7.7341 4.49979 12 4.5H12.0628C16.3107 4.51795 19.8457 7.76853 20.2191 12H18C16.7574 12 15.75 13.0074 15.75 14.25V18C15.75 19.2426 16.7574 20.25 18 20.25H19.5C20.7426 20.25 21.75 19.2426 21.75 18V12.75C21.7599 10.1741 20.7442 7.70022 18.9272 5.87437ZM6 13.5C6.41421 13.5 6.75 13.8358 6.75 14.25V18C6.75 18.4142 6.41421 18.75 6 18.75H4.5C4.08579 18.75 3.75 18.4142 3.75 18V13.5H6ZM20.25 18C20.25 18.4142 19.9142 18.75 19.5 18.75H18C17.5858 18.75 17.25 18.4142 17.25 18V14.25C17.25 13.8358 17.5858 13.5 18 13.5H20.25V18Z" fill="#121417"/>
</g>
<defs>
<clipPath id="clip0_6_535">
<rect width="24" height="24" fill="white"/>
</clipPath>
</defs>
</svg>
