<svg width="24" height="24" viewBox="0 0 24 24" fill="none" xmlns="http://www.w3.org/2000/svg">
<g clip-path="url(#clip0_6_578)">
<path fill-rule="evenodd" clip-rule="evenodd" d="M16.125 7.125C16.125 4.84683 14.2782 3 12 3C9.72183 3 7.875 4.84683 7.875 7.125C7.875 9.40317 9.72183 11.25 12 11.25C14.2771 11.2474 16.1224 9.4021 16.125 7.125ZM12 9.75C10.5503 9.75 9.375 8.57475 9.375 7.125C9.375 5.67525 10.5503 4.5 12 4.5C13.4497 4.5 14.625 5.67525 14.625 7.125C14.625 8.57475 13.4497 9.75 12 9.75ZM17.625 12C15.3468 12 13.5 13.8468 13.5 16.125C13.5 18.4032 15.3468 20.25 17.625 20.25C19.9032 20.25 21.75 18.4032 21.75 16.125C21.7474 13.8479 19.9021 12.0026 17.625 12ZM17.625 18.75C16.1753 18.75 15 17.5747 15 16.125C15 14.6753 16.1753 13.5 17.625 13.5C19.0747 13.5 20.25 14.6753 20.25 16.125C20.25 17.5747 19.0747 18.75 17.625 18.75ZM6.375 12C4.09683 12 2.25 13.8468 2.25 16.125C2.25 18.4032 4.09683 20.25 6.375 20.25C8.65317 20.25 10.5 18.4032 10.5 16.125C10.4974 13.8479 8.6521 12.0026 6.375 12ZM6.375 18.75C4.92525 18.75 3.75 17.5747 3.75 16.125C3.75 14.6753 4.92525 13.5 6.375 13.5C7.82475 13.5 9 14.6753 9 16.125C9 17.5747 7.82475 18.75 6.375 18.75Z" fill="#121417"/>
</g>
<defs>
<clipPath id="clip0_6_578">
<rect width="24" height="24" fill="white"/>
</clipPath>
</defs>
</svg>
